<?xml version="1.0" encoding="UTF-8" standalone="no"?>
<svg
   xmlns:dc="http://purl.org/dc/elements/1.1/"
   xmlns:cc="http://creativecommons.org/ns#"
   xmlns:rdf="http://www.w3.org/1999/02/22-rdf-syntax-ns#"
   xmlns:svg="http://www.w3.org/2000/svg"
   xmlns="http://www.w3.org/2000/svg"
   xmlns:sodipodi="http://sodipodi.sourceforge.net/DTD/sodipodi-0.dtd"
   xmlns:inkscape="http://www.inkscape.org/namespaces/inkscape"
   width="100mm"
   height="100mm"
   viewBox="0 0 100 100"
   version="1.1"
   id="svg8"
   inkscape:version="1.0.1 (3bc2e813f5, 2020-09-07, custom)"
   sodipodi:docname="icon.svg">
  <defs
     id="defs2" />
  <sodipodi:namedview
     id="base"
     pagecolor="#ffffff"
     bordercolor="#666666"
     borderopacity="1.0"
     inkscape:pageopacity="0.0"
     inkscape:pageshadow="2"
     inkscape:zoom="1.686901"
     inkscape:cx="135.57872"
     inkscape:cy="159.41263"
     inkscape:document-units="mm"
     inkscape:current-layer="layer1"
     inkscape:document-rotation="0"
     showgrid="false"
     inkscape:snap-center="true"
     inkscape:snap-object-midpoints="false"
     inkscape:window-width="1920"
     inkscape:window-height="1080"
     inkscape:window-x="1920"
     inkscape:window-y="0"
     inkscape:window-maximized="1"
     fit-margin-top="0"
     fit-margin-left="0"
     fit-margin-right="0"
     fit-margin-bottom="0"
     scale-x="1" />
  <metadata
     id="metadata5">
    <rdf:RDF>
      <cc:Work
         rdf:about="">
        <dc:format>image/svg+xml</dc:format>
        <dc:type
           rdf:resource="http://purl.org/dc/dcmitype/StillImage" />
        <dc:title />
      </cc:Work>
    </rdf:RDF>
  </metadata>
  <g
     inkscape:label="Layer 1"
     inkscape:groupmode="layer"
     id="layer1"
     transform="translate(-83.064217,-48.909226)">
    <path
       id="path1005-9-6-8-2"
       style="fill:#48b2ad;fill-opacity:1;stroke:none;stroke-width:1.8189;stroke-linecap:butt;stroke-linejoin:miter;stroke-miterlimit:4;stroke-dasharray:none;stroke-opacity:1"
       inkscape:transform-center-x="0.1932127"
       inkscape:transform-center-y="-0.36073078"
       d="M 188.3125 14.189453 C 175.36008 52.190883 157.8887 87.774017 146.62695 126.67969 C 95.63546 103.56002 50.716053 130.08049 4.6601562 147.30469 C 36.797284 171.36919 65.23968 198.98289 98.761719 221.71484 C 61.020557 263.06564 72.360806 313.98077 74.509766 363.10352 C 107.32493 339.97325 142.37663 321.45496 174.35547 296.59961 C 202.01933 345.27426 253.94663 350.22126 301.33008 363.35742 C 289.47213 325.0001 282.69289 285.94264 268.93555 247.84766 C 323.77685 236.57922 344.53021 188.72175 371.66602 147.7168 C 331.52163 147.14136 292.27871 141.51997 251.79688 142.83203 C 258.02525 87.194209 218.92239 52.670128 188.3125 14.189453 z M 188.91406 174.07227 A 34.938041 34.938041 0 0 1 223.85156 209.01172 A 34.938041 34.938041 0 0 1 188.91406 243.94922 A 34.938041 34.938041 0 0 1 153.97656 209.01172 A 34.938041 34.938041 0 0 1 188.91406 174.07227 z "
       transform="matrix(0.26458333,0,0,0.26458333,83.064217,48.909226)" />
  </g>
</svg>
