<?xml version="1.0" encoding="UTF-8" standalone="no"?>
<svg
   xmlns:dc="http://purl.org/dc/elements/1.1/"
   xmlns:cc="http://creativecommons.org/ns#"
   xmlns:rdf="http://www.w3.org/1999/02/22-rdf-syntax-ns#"
   xmlns:svg="http://www.w3.org/2000/svg"
   xmlns="http://www.w3.org/2000/svg"
   xmlns:xlink="http://www.w3.org/1999/xlink"
   xmlns:sodipodi="http://sodipodi.sourceforge.net/DTD/sodipodi-0.dtd"
   xmlns:inkscape="http://www.inkscape.org/namespaces/inkscape"
   width="541.89276mm"
   height="98.444702mm"
   viewBox="0 0 541.89275 98.444702"
   version="1.1"
   id="svg8"
   inkscape:version="1.0.1 (3bc2e813f5, 2020-09-07, custom)"
   sodipodi:docname="logo.svg">
  <defs
     id="defs2">
    <linearGradient
       inkscape:collect="always"
       id="linearGradient1558">
      <stop
         style="stop-color:#48b2ad;stop-opacity:1;"
         offset="0"
         id="stop1554" />
      <stop
         style="stop-color:#8b8bff;stop-opacity:1"
         offset="1"
         id="stop1556" />
    </linearGradient>
    <linearGradient
       inkscape:collect="always"
       id="linearGradient1542">
      <stop
         style="stop-color:#ff5555;stop-opacity:1;"
         offset="0"
         id="stop1538" />
      <stop
         style="stop-color:#48b2ad;stop-opacity:1"
         offset="1"
         id="stop1540" />
    </linearGradient>
    <linearGradient
       inkscape:collect="always"
       id="linearGradient1534">
      <stop
         style="stop-color:#eea82b;stop-opacity:1;"
         offset="0"
         id="stop1530" />
      <stop
         style="stop-color:#ff5555;stop-opacity:1"
         offset="1"
         id="stop1532" />
    </linearGradient>
    <linearGradient
       inkscape:collect="always"
       id="linearGradient1526">
      <stop
         style="stop-color:#e2689b;stop-opacity:1;"
         offset="0"
         id="stop1522" />
      <stop
         style="stop-color:#eea82b;stop-opacity:1"
         offset="1"
         id="stop1524" />
    </linearGradient>
    <linearGradient
       inkscape:collect="always"
       xlink:href="#linearGradient1558"
       id="linearGradient1560-3-6"
       x1="165.46909"
       y1="203.27751"
       x2="141.06503"
       y2="293.94437"
       gradientUnits="userSpaceOnUse"
       gradientTransform="translate(0,310.52114)" />
    <linearGradient
       inkscape:collect="always"
       xlink:href="#linearGradient1542"
       id="linearGradient1544-5-7"
       x1="284.15106"
       y1="223.41568"
       x2="247.87363"
       y2="293.84528"
       gradientUnits="userSpaceOnUse"
       gradientTransform="translate(0,310.52114)" />
    <linearGradient
       inkscape:collect="always"
       xlink:href="#linearGradient1534"
       id="linearGradient1536-6-2"
       x1="424.93704"
       y1="196.82069"
       x2="368.39206"
       y2="294.11444"
       gradientUnits="userSpaceOnUse"
       gradientTransform="translate(0,310.52114)" />
    <linearGradient
       inkscape:collect="always"
       xlink:href="#linearGradient1526"
       id="linearGradient1528-1-7"
       x1="553.08081"
       y1="223.41568"
       x2="516.80334"
       y2="293.79633"
       gradientUnits="userSpaceOnUse"
       gradientTransform="translate(0,310.52114)" />
  </defs>
  <sodipodi:namedview
     id="base"
     pagecolor="#ffffff"
     bordercolor="#666666"
     borderopacity="1.0"
     inkscape:pageopacity="0.0"
     inkscape:pageshadow="2"
     inkscape:zoom="0.16530566"
     inkscape:cx="1056.2733"
     inkscape:cy="-421.34114"
     inkscape:document-units="mm"
     inkscape:current-layer="layer1"
     inkscape:document-rotation="0"
     showgrid="false"
     inkscape:snap-center="true"
     inkscape:snap-object-midpoints="false"
     inkscape:window-width="954"
     inkscape:window-height="1049"
     inkscape:window-x="2880"
     inkscape:window-y="0"
     inkscape:window-maximized="1"
     fit-margin-top="0"
     fit-margin-left="0"
     fit-margin-right="0"
     fit-margin-bottom="0" />
  <metadata
     id="metadata5">
    <rdf:RDF>
      <cc:Work
         rdf:about="">
        <dc:format>image/svg+xml</dc:format>
        <dc:type
           rdf:resource="http://purl.org/dc/dcmitype/StillImage" />
        <dc:title></dc:title>
      </cc:Work>
    </rdf:RDF>
  </metadata>
  <g
     inkscape:label="Layer 1"
     inkscape:groupmode="layer"
     id="layer1"
     transform="translate(-82.490639,-505.92171)">
    <path
       d="m 82.490639,604.29959 h 12.264628 v -40.66956 h 29.047843 v -9.68258 H 94.755267 v -30.33883 h 33.566393 l 1.42028,-9.81173 H 82.490822 Z"
       style="font-size:3.52777px;line-height:1.25;font-family:'Fira Sans';-inkscape-font-specification:'Fira Sans';letter-spacing:-0.0264583px;word-spacing:0px;fill:#8b8bff;fill-opacity:1;stroke-width:9.68261"
       id="path2270-5-0-3"
       sodipodi:nodetypes="ccccccccccc" />
    <path
       d="m 156.01378,604.29699 c 3.48575,0 6.84238,-0.90355 9.4244,-2.32383 l -3.09857,-8.26248 c -1.2911,0.51637 -2.71101,0.77473 -4.38944,0.77473 -3.09856,0 -4.26033,-1.80746 -4.26033,-5.42225 v -75.26521 l -11.87734,-0.0366 v 75.55992 c 0,9.68258 5.55136,14.97576 14.20117,14.97576 z"
       style="font-size:3.52777px;line-height:1.25;font-family:'Fira Sans';-inkscape-font-specification:'Fira Sans';letter-spacing:-0.0264583px;word-spacing:0px;fill:url(#linearGradient1560-3-6);fill-opacity:1;stroke-width:9.68261"
       id="path2272-4-9-0"
       sodipodi:nodetypes="sccssccsss" />
    <path
       d="m 277.43787,533.16212 c -8.26251,0 -14.58846,5.16407 -18.20331,15.36305 l -1.16192,-13.81384 h -10.19901 v 69.65508 h 11.87733 v -40.47816 c 2.8402,-13.03925 7.74608,-19.10701 16.26678,-19.10701 2.45301,0 3.87304,0.25983 5.93868,0.77473 l 2.19465,-11.61915 c -2.06546,-0.51637 -4.51855,-0.77473 -6.71327,-0.77473 z"
       style="font-size:3.52777px;line-height:1.25;font-family:'Fira Sans';-inkscape-font-specification:'Fira Sans';letter-spacing:-0.0264583px;word-spacing:0px;fill:url(#linearGradient1544-5-7);fill-opacity:1;stroke-width:9.68261"
       id="path2276-7-3-7"
       sodipodi:nodetypes="cccccccscccc" />
    <path
       d="m 413.05971,505.92171 v 35.632 c -4.51856,-4.77677 -10.32815,-8.39159 -18.33243,-8.39159 -16.65409,0 -26.724,15.10486 -26.724,35.89019 0,21.17262 9.16623,35.24468 25.69118,35.24468 8.3916,0 15.23396,-4.13126 19.62343,-10.9736 l 1.16191,11.00774 h 10.45724 v -96.98929 z m -16.78319,88.95088 c -9.81172,0 -15.4922,-8.1334 -15.4922,-26.0785 0,-17.68687 6.32598,-26.20757 16.52501,-26.20757 6.71327,0 11.49,3.48574 15.75038,8.90799 v 33.30818 c -4.51856,6.32594 -9.16623,10.0699 -16.78319,10.0699 z"
       style="font-size:3.52777px;line-height:1.25;font-family:'Fira Sans';-inkscape-font-specification:'Fira Sans';letter-spacing:-0.0264583px;word-spacing:0px;fill:url(#linearGradient1536-6-2);fill-opacity:1;stroke-width:9.68261"
       id="path2280-4-6-8"
       sodipodi:nodetypes="ccssscccccsssccs" />
    <path
       d="m 546.36761,533.16212 c -8.26251,0 -14.58846,5.16407 -18.20333,15.36305 l -1.16189,-13.81384 h -10.19903 v 69.60615 h 11.87733 v -40.42923 c 2.8402,-13.03925 7.74608,-19.10701 16.26677,-19.10701 2.45303,0 3.87305,0.25983 5.93871,0.77473 l 2.19463,-11.61915 c -2.06547,-0.51637 -4.51855,-0.77473 -6.71327,-0.77473 z"
       style="font-size:3.52777px;line-height:1.25;font-family:'Fira Sans';-inkscape-font-specification:'Fira Sans';letter-spacing:-0.0264583px;word-spacing:0px;fill:url(#linearGradient1528-1-7);fill-opacity:1;stroke-width:9.68261"
       id="path2284-4-0-6"
       sodipodi:nodetypes="cccccccscccc" />
    <path
       id="path1005-7-8-6-8"
       style="fill:#48b2ad;fill-opacity:1;stroke:none;stroke-width:0.365958;stroke-linecap:butt;stroke-linejoin:miter;stroke-miterlimit:4;stroke-dasharray:none;stroke-opacity:1"
       inkscape:transform-center-x="0.095402733"
       inkscape:transform-center-y="-1.100352"
       d="m 201.49577,531.54654 c -1.04163,3.05607 -2.22862,6.03437 -3.42304,9.00875 -0.59721,1.48719 -1.19657,2.97352 -1.78025,4.46794 -1.16949,2.99425 -2.27699,6.0216 -3.18431,9.15604 -10.25921,-4.65137 -19.29688,0.6847 -28.56311,4.15013 6.46591,4.84172 12.18866,10.39706 18.93321,14.97066 -7.5937,8.31971 -5.31218,18.56391 -4.8798,28.44735 6.60241,-4.65379 13.65456,-8.38014 20.08869,-13.38108 5.56585,9.79347 16.01377,10.78926 25.54728,13.43225 -2.38575,-7.71727 -3.75009,-15.57595 -6.51795,-23.24044 11.03385,-2.26721 15.20939,-11.896 20.66902,-20.14606 -8.07693,-0.11578 -15.97256,-1.24687 -24.11739,-0.98288 1.25314,-11.19417 -6.61372,-18.14046 -12.77235,-25.88266 z m 0.12093,32.16806 a 7.0294341,7.0294341 0 0 1 7.02903,7.02955 7.0294341,7.0294341 0 0 1 -7.02903,7.02954 7.0294341,7.0294341 0 0 1 -7.02955,-7.02954 7.0294341,7.0294341 0 0 1 7.02955,-7.02955 z" />
    <path
       id="path1337-8-6-5-8"
       style="fill:#ff5555;fill-opacity:1;stroke:none;stroke-width:0.286478;stroke-miterlimit:4;stroke-dasharray:none"
       inkscape:transform-center-y="-0.68974084"
       d="m 321.30603,532.62399 c -1.08302,0 -2.12741,0.16416 -3.10988,0.46974 -0.16359,0.0509 -0.32624,0.10626 -0.48628,0.16485 -2.88312,1.0558 -5.17185,3.34434 -6.22753,6.22753 -0.1173,0.32037 -0.21943,0.64819 -0.3054,0.98236 -0.21495,0.83543 -0.32918,1.71128 -0.32918,2.6138 0,0.90252 0.11423,2.08494 0.32918,3.43803 0.086,0.54124 0.1881,1.10982 0.3054,1.69861 0.0589,0.29587 0.12158,0.59704 0.18811,0.90227 -0.20618,-0.25338 -0.4132,-0.50987 -0.6165,-0.75034 -1.34287,-1.58828 -2.60619,-2.88018 -3.58738,-3.66025 l -5.3e-4,5.3e-4 c -4.51606,-3.60171 -11.0957,-2.86019 -14.6973,1.65572 -3.60167,4.51603 -2.86019,11.09624 1.65572,14.69781 1.12956,0.90077 3.00304,2.01988 5.23379,3.12125 -0.32641,0.003 -0.65543,0.005 -0.96997,0.0145 -2.07908,0.0596 -3.87686,0.24171 -5.0984,0.52245 v 5.3e-4 c -5.63154,1.28526 -9.15441,6.89236 -7.86928,12.52379 1.28525,5.63154 6.89233,9.15391 12.52378,7.86877 1.40858,-0.32151 3.45151,-1.0887 5.70353,-2.14613 -0.20102,0.2573 -0.40468,0.51629 -0.59376,0.76792 -1.24963,1.66271 -2.22751,3.1823 -2.77038,4.31188 h 5.3e-4 c -2.50631,5.2042 -0.31912,11.45451 4.88497,13.96091 5.2042,2.50634 11.45452,0.31914 13.96091,-4.88498 0.62692,-1.30184 1.30103,-3.37786 1.87843,-5.7981 0.0759,0.31774 0.15109,0.63876 0.22996,0.94362 0.52076,2.01344 1.09929,3.72576 1.64383,4.85448 2.50629,5.20398 8.75688,7.391 13.96091,4.88498 5.20429,-2.50614 7.39107,-8.75673 4.88497,-13.96091 -0.62691,-1.30179 -1.82893,-3.12308 -3.36104,-5.08341 0.29554,0.1387 0.59321,0.27991 0.88057,0.40824 1.89911,0.84825 3.59826,1.46362 4.82038,1.7415 l -5.3e-4,-5.3e-4 c 5.63136,1.28537 11.23836,-2.23746 12.52378,-7.86877 1.28535,-5.63134 -2.23745,-11.23837 -7.86878,-12.52379 -1.40859,-0.32149 -3.58212,-0.51715 -6.0699,-0.54157 0.29264,-0.14454 0.58822,-0.28894 0.86765,-0.43356 1.84702,-0.95588 3.38659,-1.9021 4.36664,-2.68356 4.51604,-3.60136 5.25759,-10.18134 1.65624,-14.69729 -3.60136,-4.51602 -10.18183,-5.25759 -14.6978,-1.65623 -1.12826,0.89975 -2.63364,2.47462 -4.20181,4.40128 0.0682,-0.31326 0.13252,-0.62165 0.19275,-0.92501 10e-4,-0.006 0.002,-0.0119 0.004,-0.0176 0.003,-0.0176 0.006,-0.0335 0.009,-0.0512 0.0883,-0.44828 0.16608,-0.88178 0.23616,-1.30276 0.0119,-0.0714 0.0253,-0.14493 0.0367,-0.21549 0.0165,-0.10268 0.0311,-0.2016 0.0465,-0.30231 0.0222,-0.14535 0.0438,-0.28996 0.0636,-0.43098 0.0149,-0.10645 0.0289,-0.21036 0.0424,-0.31419 0.0184,-0.14108 0.0354,-0.2795 0.0512,-0.41548 0.0104,-0.0894 0.0202,-0.17804 0.0295,-0.2651 0.0158,-0.14955 0.0295,-0.29428 0.0419,-0.43667 0.006,-0.0699 0.0123,-0.14067 0.0176,-0.20877 0.0106,-0.1375 0.0187,-0.26861 0.0258,-0.39843 0.004,-0.0707 0.009,-0.14404 0.0119,-0.21238 0.008,-0.18638 0.0124,-0.36558 0.0124,-0.53331 0,-0.36101 -0.0186,-0.71759 -0.0543,-1.06918 -0.51773,-5.09802 -4.69656,-9.11361 -9.86606,-9.37566 -0.17826,-0.009 -0.35797,-0.0134 -0.53847,-0.0134 z m 0,29.64781 a 7.3964033,7.3964033 0 0 1 7.39645,7.39644 7.3964033,7.3964033 0 0 1 -7.39645,7.39645 7.3964033,7.3964033 0 0 1 -7.39644,-7.39645 7.3964033,7.3964033 0 0 1 7.39644,-7.39644 z" />
    <path
       id="path1695-9-7-3-4"
       style="fill:#eea82b;fill-opacity:1;stroke:none;stroke-width:0.0917877;stroke-miterlimit:4;stroke-dasharray:none"
       inkscape:transform-center-y="-1.9133368"
       d="m 471.07106,534.82799 c -6.22266,0 -11.26755,3.11759 -11.26752,6.9634 0,1.75722 -0.16423,7.98215 0.8046,14.22497 -5.63793,-2.85057 -11.60913,-4.61791 -13.28034,-5.16092 -3.6576,-1.18843 -8.18139,2.64572 -10.10428,8.56382 -1.92289,5.91806 -0.51673,11.67951 3.1409,12.86794 1.67116,0.543 7.54036,2.62303 13.77693,3.63079 -4.45304,4.48099 -7.97851,9.61342 -9.01134,11.03499 -2.26052,3.11134 -0.0124,8.59852 5.0219,12.2561 5.03423,3.65754 10.94801,4.10043 13.2085,0.98909 1.03283,-1.42157 4.82452,-6.36043 7.71012,-11.98016 2.88562,5.61982 6.67782,10.55857 7.71064,11.98016 2.26053,3.11134 8.17428,2.66851 13.20851,-0.98909 5.03414,-3.65759 7.28294,-9.14477 5.02242,-12.2561 -1.03285,-1.4216 -4.55874,-6.55396 -9.01184,-11.03499 6.23655,-1.00775 12.10575,-3.08779 13.77694,-3.63079 3.65757,-1.18843 5.06378,-6.94985 3.14089,-12.86794 -1.92291,-5.9181 -6.4467,-9.75225 -10.1043,-8.56382 -1.67106,0.54296 -7.6413,2.30978 -13.27878,5.15989 0.0633,-0.40823 0.12483,-0.81636 0.17881,-1.22318 0.77147,-5.8142 0.62425,-11.35855 0.62425,-13.00076 0,-3.84581 -5.04436,-6.9634 -11.26701,-6.9634 z m -0.0238,28.80806 a 6.7298657,6.7298657 0 0 1 0.0238,0 6.7298657,6.7298657 0 0 1 6.72981,6.72982 6.7298657,6.7298657 0 0 1 -6.72981,6.72983 6.7298657,6.7298657 0 0 1 -6.73034,-6.72983 6.7298657,6.7298657 0 0 1 6.70655,-6.72982 z" />
    <path
       id="path1520-7-5-6-3"
       style="fill:#e2689b;fill-opacity:1;stroke:none;stroke-width:0.14407;stroke-miterlimit:4;stroke-dasharray:none"
       d="m 578.3415,535.71269 c -1.47233,0.0308 -2.6316,0.88632 -3.09438,3.25768 -0.67207,3.44385 0.59716,9.70628 2.90423,15.43989 -4.74004,-3.96585 -10.30333,-7.10836 -13.78625,-7.53339 -8.0785,-0.98584 -2.24486,10.86059 -3.07113,13.43019 -0.003,0.006 -0.003,0.0121 -0.004,0.0181 -0.003,0.005 -0.004,0.009 -0.006,0.0134 -0.8419,2.56453 -12.52514,8.71915 -5.41001,12.67002 3.0676,1.70338 9.41556,2.43153 15.58147,2.00918 -5.2364,3.28251 -9.94413,7.60224 -11.42461,10.78332 -3.434,7.37847 9.63504,5.49047 11.82357,7.07037 0.005,0.003 0.01,0.005 0.014,0.008 0.005,0.003 0.008,0.008 0.013,0.0114 2.17884,1.59319 4.42251,14.60644 10.3787,9.06043 2.56786,-2.39102 5.22145,-8.20316 6.72516,-14.19758 1.50373,5.99442 4.15782,11.80656 6.7257,14.19758 5.9562,5.54601 8.19934,-7.46724 10.37818,-9.06043 0.005,-0.003 0.008,-0.008 0.013,-0.0114 0.005,-0.003 0.01,-0.005 0.014,-0.008 2.18853,-1.57989 15.25757,0.30811 11.82357,-7.07037 -1.48048,-3.18108 -6.18821,-7.50081 -11.42461,-10.78332 6.16577,0.42229 12.51392,-0.30583 15.58147,-2.00918 7.11513,-3.95086 -4.56811,-10.10549 -5.41001,-12.67002 -0.003,-0.006 -0.005,-0.0105 -0.007,-0.016 -0.003,-0.005 -0.003,-0.0104 -0.004,-0.0155 -0.82629,-2.56961 5.0079,-14.41603 -3.07062,-13.43019 -3.48292,0.42503 -9.04621,3.56754 -13.78625,7.53339 2.30706,-5.73361 3.5763,-11.99604 2.90423,-15.43989 -1.55882,-7.98777 -11.02247,1.22168 -13.72166,1.2299 -0.006,2e-5 -0.0109,0.002 -0.0164,0.002 -0.006,-8e-5 -0.0109,-0.002 -0.0164,-0.002 -1.89786,-0.006 -7.14013,-4.56041 -10.62726,-4.48758 z m 10.61125,26.88932 a 7.0294341,7.0294341 0 0 1 0.0325,0 7.0294341,7.0294341 0 0 1 7.02956,7.02903 7.0294341,7.0294341 0 0 1 -7.02956,7.02954 7.0294341,7.0294341 0 0 1 -7.02953,-7.02954 7.0294341,7.0294341 0 0 1 6.99699,-7.02903 z" />
  </g>
</svg>
